<?xml version="1.0" encoding="utf-8" standalone="no"?>
<!DOCTYPE svg PUBLIC "-//W3C//DTD SVG 1.1//EN"
  "http://www.w3.org/Graphics/SVG/1.1/DTD/svg11.dtd">
<!-- Created with matplotlib (https://matplotlib.org/) -->
<svg height="360pt" version="1.1" viewBox="0 0 767.25 360" width="767.25pt" xmlns="http://www.w3.org/2000/svg" xmlns:xlink="http://www.w3.org/1999/xlink">
 <defs>
  <style type="text/css">
*{stroke-linecap:butt;stroke-linejoin:round;}
  </style>
 </defs>
 <g id="figure_1">
  <g id="patch_1">
   <path d="M 0 360 
L 767.25 360 
L 767.25 0 
L 0 0 
z
" style="fill:#ffffff;"/>
  </g>
  <g id="axes_1">
   <g id="patch_2">
    <path d="M 44.676328 320.2 
L 712.3275 320.2 
L 712.3275 10.8 
L 44.676328 10.8 
z
" style="fill:#ffffff;"/>
   </g>
   <g id="matplotlib.axis_1">
    <g id="xtick_1">
     <g id="line2d_1">
      <defs>
       <path d="M 0 0 
L 0 3.5 
" id="m580314f380" style="stroke:#262626;stroke-width:0.8;"/>
      </defs>
      <g>
       <use style="fill:#262626;stroke:#262626;stroke-width:0.8;" x="92.365698" xlink:href="#m580314f380" y="320.2"/>
      </g>
     </g>
     <g id="text_1">
      <!-- A_N -->
      <defs>
       <path d="M -0.140625 0 
L 27.34375 71.578125 
L 37.546875 71.578125 
L 66.84375 0 
L 56.0625 0 
L 47.703125 21.6875 
L 17.78125 21.6875 
L 9.90625 0 
z
M 20.515625 29.390625 
L 44.78125 29.390625 
L 37.3125 49.21875 
Q 33.890625 58.25 32.234375 64.0625 
Q 30.859375 57.171875 28.375 50.390625 
z
" id="ArialMT-65"/>
       <path d="M -1.515625 -19.875 
L -1.515625 -13.53125 
L 56.734375 -13.53125 
L 56.734375 -19.875 
z
" id="ArialMT-95"/>
       <path d="M 7.625 0 
L 7.625 71.578125 
L 17.328125 71.578125 
L 54.9375 15.375 
L 54.9375 71.578125 
L 64.015625 71.578125 
L 64.015625 0 
L 54.296875 0 
L 16.703125 56.25 
L 16.703125 0 
z
" id="ArialMT-78"/>
      </defs>
      <g style="fill:#262626;" transform="translate(82.639135 334.357813)scale(0.1 -0.1)">
       <use xlink:href="#ArialMT-65"/>
       <use x="66.699219" xlink:href="#ArialMT-95"/>
       <use x="122.314453" xlink:href="#ArialMT-78"/>
      </g>
     </g>
    </g>
    <g id="xtick_2">
     <g id="line2d_2">
      <g>
       <use style="fill:#262626;stroke:#262626;stroke-width:0.8;" x="187.744436" xlink:href="#m580314f380" y="320.2"/>
      </g>
     </g>
     <g id="text_2">
      <!-- AQ_0.5 -->
      <defs>
       <path d="M 61.96875 7.671875 
Q 68.5625 3.125 74.125 1.03125 
L 71.34375 -5.5625 
Q 63.625 -2.78125 55.953125 3.21875 
Q 48 -1.21875 38.375 -1.21875 
Q 28.65625 -1.21875 20.75 3.46875 
Q 12.84375 8.15625 8.5625 16.640625 
Q 4.296875 25.140625 4.296875 35.796875 
Q 4.296875 46.390625 8.59375 55.078125 
Q 12.890625 63.765625 20.828125 68.3125 
Q 28.765625 72.859375 38.578125 72.859375 
Q 48.484375 72.859375 56.4375 68.140625 
Q 64.40625 63.421875 68.578125 54.953125 
Q 72.75 46.484375 72.75 35.84375 
Q 72.75 27 70.0625 19.9375 
Q 67.390625 12.890625 61.96875 7.671875 
z
M 41.109375 19.78125 
Q 49.3125 17.484375 54.640625 12.9375 
Q 62.984375 20.5625 62.984375 35.84375 
Q 62.984375 44.53125 60.03125 51.015625 
Q 57.078125 57.515625 51.390625 61.109375 
Q 45.703125 64.703125 38.625 64.703125 
Q 28.03125 64.703125 21.046875 57.453125 
Q 14.0625 50.203125 14.0625 35.796875 
Q 14.0625 21.828125 20.96875 14.359375 
Q 27.875 6.890625 38.625 6.890625 
Q 43.703125 6.890625 48.1875 8.796875 
Q 43.75 11.671875 38.8125 12.890625 
z
" id="ArialMT-81"/>
       <path d="M 4.15625 35.296875 
Q 4.15625 48 6.765625 55.734375 
Q 9.375 63.484375 14.515625 67.671875 
Q 19.671875 71.875 27.484375 71.875 
Q 33.25 71.875 37.59375 69.546875 
Q 41.9375 67.234375 44.765625 62.859375 
Q 47.609375 58.5 49.21875 52.21875 
Q 50.828125 45.953125 50.828125 35.296875 
Q 50.828125 22.703125 48.234375 14.96875 
Q 45.65625 7.234375 40.5 3 
Q 35.359375 -1.21875 27.484375 -1.21875 
Q 17.140625 -1.21875 11.234375 6.203125 
Q 4.15625 15.140625 4.15625 35.296875 
z
M 13.1875 35.296875 
Q 13.1875 17.671875 17.3125 11.828125 
Q 21.4375 6 27.484375 6 
Q 33.546875 6 37.671875 11.859375 
Q 41.796875 17.71875 41.796875 35.296875 
Q 41.796875 52.984375 37.671875 58.78125 
Q 33.546875 64.59375 27.390625 64.59375 
Q 21.34375 64.59375 17.71875 59.46875 
Q 13.1875 52.9375 13.1875 35.296875 
z
" id="ArialMT-48"/>
       <path d="M 9.078125 0 
L 9.078125 10.015625 
L 19.09375 10.015625 
L 19.09375 0 
z
" id="ArialMT-46"/>
       <path d="M 4.15625 18.75 
L 13.375 19.53125 
Q 14.40625 12.796875 18.140625 9.390625 
Q 21.875 6 27.15625 6 
Q 33.5 6 37.890625 10.78125 
Q 42.28125 15.578125 42.28125 23.484375 
Q 42.28125 31 38.0625 35.34375 
Q 33.84375 39.703125 27 39.703125 
Q 22.75 39.703125 19.328125 37.765625 
Q 15.921875 35.84375 13.96875 32.765625 
L 5.71875 33.84375 
L 12.640625 70.609375 
L 48.25 70.609375 
L 48.25 62.203125 
L 19.671875 62.203125 
L 15.828125 42.96875 
Q 22.265625 47.46875 29.34375 47.46875 
Q 38.71875 47.46875 45.15625 40.96875 
Q 51.609375 34.46875 51.609375 24.265625 
Q 51.609375 14.546875 45.953125 7.46875 
Q 39.0625 -1.21875 27.15625 -1.21875 
Q 17.390625 -1.21875 11.203125 4.25 
Q 5.03125 9.71875 4.15625 18.75 
z
" id="ArialMT-53"/>
      </defs>
      <g style="fill:#262626;" transform="translate(170.789749 334.485938)scale(0.1 -0.1)">
       <use xlink:href="#ArialMT-65"/>
       <use x="66.699219" xlink:href="#ArialMT-81"/>
       <use x="144.482422" xlink:href="#ArialMT-95"/>
       <use x="200.097656" xlink:href="#ArialMT-48"/>
       <use x="255.712891" xlink:href="#ArialMT-46"/>
       <use x="283.496094" xlink:href="#ArialMT-53"/>
      </g>
     </g>
    </g>
    <g id="xtick_3">
     <g id="line2d_3">
      <g>
       <use style="fill:#262626;stroke:#262626;stroke-width:0.8;" x="283.123175" xlink:href="#m580314f380" y="320.2"/>
      </g>
     </g>
     <g id="text_3">
      <!-- AQ_0.5C -->
      <defs>
       <path d="M 58.796875 25.09375 
L 68.265625 22.703125 
Q 65.28125 11.03125 57.546875 4.90625 
Q 49.8125 -1.21875 38.625 -1.21875 
Q 27.046875 -1.21875 19.796875 3.484375 
Q 12.546875 8.203125 8.765625 17.140625 
Q 4.984375 26.078125 4.984375 36.328125 
Q 4.984375 47.515625 9.25 55.828125 
Q 13.53125 64.15625 21.40625 68.46875 
Q 29.296875 72.796875 38.765625 72.796875 
Q 49.515625 72.796875 56.828125 67.328125 
Q 64.15625 61.859375 67.046875 51.953125 
L 57.71875 49.75 
Q 55.21875 57.5625 50.484375 61.125 
Q 45.75 64.703125 38.578125 64.703125 
Q 30.328125 64.703125 24.78125 60.734375 
Q 19.234375 56.78125 16.984375 50.109375 
Q 14.75 43.453125 14.75 36.375 
Q 14.75 27.25 17.40625 20.4375 
Q 20.0625 13.625 25.671875 10.25 
Q 31.296875 6.890625 37.84375 6.890625 
Q 45.796875 6.890625 51.3125 11.46875 
Q 56.84375 16.0625 58.796875 25.09375 
z
" id="ArialMT-67"/>
      </defs>
      <g style="fill:#262626;" transform="translate(262.55755 334.485938)scale(0.1 -0.1)">
       <use xlink:href="#ArialMT-65"/>
       <use x="66.699219" xlink:href="#ArialMT-81"/>
       <use x="144.482422" xlink:href="#ArialMT-95"/>
       <use x="200.097656" xlink:href="#ArialMT-48"/>
       <use x="255.712891" xlink:href="#ArialMT-46"/>
       <use x="283.496094" xlink:href="#ArialMT-53"/>
       <use x="339.111328" xlink:href="#ArialMT-67"/>
      </g>
     </g>
    </g>
    <g id="xtick_4">
     <g id="line2d_4">
      <g>
       <use style="fill:#262626;stroke:#262626;stroke-width:0.8;" x="378.501914" xlink:href="#m580314f380" y="320.2"/>
      </g>
     </g>
     <g id="text_4">
      <!-- AQ_1.0 -->
      <defs>
       <path d="M 37.25 0 
L 28.46875 0 
L 28.46875 56 
Q 25.296875 52.984375 20.140625 49.953125 
Q 14.984375 46.921875 10.890625 45.40625 
L 10.890625 53.90625 
Q 18.265625 57.375 23.78125 62.296875 
Q 29.296875 67.234375 31.59375 71.875 
L 37.25 71.875 
z
" id="ArialMT-49"/>
      </defs>
      <g style="fill:#262626;" transform="translate(361.547227 334.485938)scale(0.1 -0.1)">
       <use xlink:href="#ArialMT-65"/>
       <use x="66.699219" xlink:href="#ArialMT-81"/>
       <use x="144.482422" xlink:href="#ArialMT-95"/>
       <use x="200.097656" xlink:href="#ArialMT-49"/>
       <use x="255.712891" xlink:href="#ArialMT-46"/>
       <use x="283.496094" xlink:href="#ArialMT-48"/>
      </g>
     </g>
    </g>
    <g id="xtick_5">
     <g id="line2d_5">
      <g>
       <use style="fill:#262626;stroke:#262626;stroke-width:0.8;" x="473.880653" xlink:href="#m580314f380" y="320.2"/>
      </g>
     </g>
     <g id="text_5">
      <!-- AQ_1.0C -->
      <g style="fill:#262626;" transform="translate(453.315028 334.485938)scale(0.1 -0.1)">
       <use xlink:href="#ArialMT-65"/>
       <use x="66.699219" xlink:href="#ArialMT-81"/>
       <use x="144.482422" xlink:href="#ArialMT-95"/>
       <use x="200.097656" xlink:href="#ArialMT-49"/>
       <use x="255.712891" xlink:href="#ArialMT-46"/>
       <use x="283.496094" xlink:href="#ArialMT-48"/>
       <use x="339.111328" xlink:href="#ArialMT-67"/>
      </g>
     </g>
    </g>
    <g id="xtick_6">
     <g id="line2d_6">
      <g>
       <use style="fill:#262626;stroke:#262626;stroke-width:0.8;" x="569.259392" xlink:href="#m580314f380" y="320.2"/>
      </g>
     </g>
     <g id="text_6">
      <!-- AQ_1.5 -->
      <g style="fill:#262626;" transform="translate(552.304704 334.485938)scale(0.1 -0.1)">
       <use xlink:href="#ArialMT-65"/>
       <use x="66.699219" xlink:href="#ArialMT-81"/>
       <use x="144.482422" xlink:href="#ArialMT-95"/>
       <use x="200.097656" xlink:href="#ArialMT-49"/>
       <use x="255.712891" xlink:href="#ArialMT-46"/>
       <use x="283.496094" xlink:href="#ArialMT-53"/>
      </g>
     </g>
    </g>
    <g id="xtick_7">
     <g id="line2d_7">
      <g>
       <use style="fill:#262626;stroke:#262626;stroke-width:0.8;" x="664.638131" xlink:href="#m580314f380" y="320.2"/>
      </g>
     </g>
     <g id="text_7">
      <!-- AQ_1.5C -->
      <g style="fill:#262626;" transform="translate(644.072506 334.485938)scale(0.1 -0.1)">
       <use xlink:href="#ArialMT-65"/>
       <use x="66.699219" xlink:href="#ArialMT-81"/>
       <use x="144.482422" xlink:href="#ArialMT-95"/>
       <use x="200.097656" xlink:href="#ArialMT-49"/>
       <use x="255.712891" xlink:href="#ArialMT-46"/>
       <use x="283.496094" xlink:href="#ArialMT-53"/>
       <use x="339.111328" xlink:href="#ArialMT-67"/>
      </g>
     </g>
    </g>
    <g id="text_8">
     <!-- Fórmula -->
     <defs>
      <path d="M 8.203125 0 
L 8.203125 71.578125 
L 56.5 71.578125 
L 56.5 63.140625 
L 17.671875 63.140625 
L 17.671875 40.96875 
L 51.265625 40.96875 
L 51.265625 32.515625 
L 17.671875 32.515625 
L 17.671875 0 
z
" id="ArialMT-70"/>
      <path d="M 3.328125 25.921875 
Q 3.328125 40.328125 11.328125 47.265625 
Q 18.015625 53.03125 27.640625 53.03125 
Q 38.328125 53.03125 45.109375 46.015625 
Q 51.90625 39.015625 51.90625 26.65625 
Q 51.90625 16.65625 48.90625 10.90625 
Q 45.90625 5.171875 40.15625 2 
Q 34.421875 -1.171875 27.640625 -1.171875 
Q 16.75 -1.171875 10.03125 5.8125 
Q 3.328125 12.796875 3.328125 25.921875 
z
M 12.359375 25.921875 
Q 12.359375 15.96875 16.703125 11.015625 
Q 21.046875 6.0625 27.640625 6.0625 
Q 34.1875 6.0625 38.53125 11.03125 
Q 42.875 16.015625 42.875 26.21875 
Q 42.875 35.84375 38.5 40.796875 
Q 34.125 45.75 27.640625 45.75 
Q 21.046875 45.75 16.703125 40.8125 
Q 12.359375 35.890625 12.359375 25.921875 
z
M 22.75 58.296875 
L 29.25 71.96875 
L 40.765625 71.96875 
L 30.03125 58.296875 
z
" id="ArialMT-243"/>
      <path d="M 6.5 0 
L 6.5 51.859375 
L 14.40625 51.859375 
L 14.40625 44 
Q 17.4375 49.515625 20 51.265625 
Q 22.5625 53.03125 25.640625 53.03125 
Q 30.078125 53.03125 34.671875 50.203125 
L 31.640625 42.046875 
Q 28.421875 43.953125 25.203125 43.953125 
Q 22.3125 43.953125 20.015625 42.21875 
Q 17.71875 40.484375 16.75 37.40625 
Q 15.28125 32.71875 15.28125 27.15625 
L 15.28125 0 
z
" id="ArialMT-114"/>
      <path d="M 6.59375 0 
L 6.59375 51.859375 
L 14.453125 51.859375 
L 14.453125 44.578125 
Q 16.890625 48.390625 20.9375 50.703125 
Q 25 53.03125 30.171875 53.03125 
Q 35.9375 53.03125 39.625 50.640625 
Q 43.3125 48.25 44.828125 43.953125 
Q 50.984375 53.03125 60.84375 53.03125 
Q 68.5625 53.03125 72.703125 48.75 
Q 76.859375 44.484375 76.859375 35.59375 
L 76.859375 0 
L 68.109375 0 
L 68.109375 32.671875 
Q 68.109375 37.9375 67.25 40.25 
Q 66.40625 42.578125 64.15625 43.984375 
Q 61.921875 45.40625 58.890625 45.40625 
Q 53.421875 45.40625 49.796875 41.765625 
Q 46.1875 38.140625 46.1875 30.125 
L 46.1875 0 
L 37.40625 0 
L 37.40625 33.6875 
Q 37.40625 39.546875 35.25 42.46875 
Q 33.109375 45.40625 28.21875 45.40625 
Q 24.515625 45.40625 21.359375 43.453125 
Q 18.21875 41.5 16.796875 37.734375 
Q 15.375 33.984375 15.375 26.90625 
L 15.375 0 
z
" id="ArialMT-109"/>
      <path d="M 40.578125 0 
L 40.578125 7.625 
Q 34.515625 -1.171875 24.125 -1.171875 
Q 19.53125 -1.171875 15.546875 0.578125 
Q 11.578125 2.34375 9.640625 5 
Q 7.71875 7.671875 6.9375 11.53125 
Q 6.390625 14.109375 6.390625 19.734375 
L 6.390625 51.859375 
L 15.1875 51.859375 
L 15.1875 23.09375 
Q 15.1875 16.21875 15.71875 13.8125 
Q 16.546875 10.359375 19.234375 8.375 
Q 21.921875 6.390625 25.875 6.390625 
Q 29.828125 6.390625 33.296875 8.421875 
Q 36.765625 10.453125 38.203125 13.9375 
Q 39.65625 17.4375 39.65625 24.078125 
L 39.65625 51.859375 
L 48.4375 51.859375 
L 48.4375 0 
z
" id="ArialMT-117"/>
      <path d="M 6.390625 0 
L 6.390625 71.578125 
L 15.1875 71.578125 
L 15.1875 0 
z
" id="ArialMT-108"/>
      <path d="M 40.4375 6.390625 
Q 35.546875 2.25 31.03125 0.53125 
Q 26.515625 -1.171875 21.34375 -1.171875 
Q 12.796875 -1.171875 8.203125 3 
Q 3.609375 7.171875 3.609375 13.671875 
Q 3.609375 17.484375 5.34375 20.625 
Q 7.078125 23.78125 9.890625 25.6875 
Q 12.703125 27.59375 16.21875 28.5625 
Q 18.796875 29.25 24.03125 29.890625 
Q 34.671875 31.15625 39.703125 32.90625 
Q 39.75 34.71875 39.75 35.203125 
Q 39.75 40.578125 37.25 42.78125 
Q 33.890625 45.75 27.25 45.75 
Q 21.046875 45.75 18.09375 43.578125 
Q 15.140625 41.40625 13.71875 35.890625 
L 5.125 37.0625 
Q 6.296875 42.578125 8.984375 45.96875 
Q 11.671875 49.359375 16.75 51.1875 
Q 21.828125 53.03125 28.515625 53.03125 
Q 35.15625 53.03125 39.296875 51.46875 
Q 43.453125 49.90625 45.40625 47.53125 
Q 47.359375 45.171875 48.140625 41.546875 
Q 48.578125 39.3125 48.578125 33.453125 
L 48.578125 21.734375 
Q 48.578125 9.46875 49.140625 6.21875 
Q 49.703125 2.984375 51.375 0 
L 42.1875 0 
Q 40.828125 2.734375 40.4375 6.390625 
z
M 39.703125 26.03125 
Q 34.90625 24.078125 25.34375 22.703125 
Q 19.921875 21.921875 17.671875 20.9375 
Q 15.4375 19.96875 14.203125 18.09375 
Q 12.984375 16.21875 12.984375 13.921875 
Q 12.984375 10.40625 15.640625 8.0625 
Q 18.3125 5.71875 23.4375 5.71875 
Q 28.515625 5.71875 32.46875 7.9375 
Q 36.421875 10.15625 38.28125 14.015625 
Q 39.703125 17 39.703125 22.796875 
z
" id="ArialMT-97"/>
     </defs>
     <g style="fill:#262626;" transform="translate(360.165977 347.63125)scale(0.1 -0.1)">
      <use xlink:href="#ArialMT-70"/>
      <use x="61.083984" xlink:href="#ArialMT-243"/>
      <use x="116.699219" xlink:href="#ArialMT-114"/>
      <use x="150" xlink:href="#ArialMT-109"/>
      <use x="233.300781" xlink:href="#ArialMT-117"/>
      <use x="288.916016" xlink:href="#ArialMT-108"/>
      <use x="311.132812" xlink:href="#ArialMT-97"/>
     </g>
    </g>
   </g>
   <g id="matplotlib.axis_2">
    <g id="ytick_1">
     <g id="line2d_8">
      <defs>
       <path d="M 0 0 
L -3.5 0 
" id="m2ab19db7bb" style="stroke:#262626;stroke-width:0.8;"/>
      </defs>
      <g>
       <use style="fill:#262626;stroke:#262626;stroke-width:0.8;" x="44.676328" xlink:href="#m2ab19db7bb" y="320.2"/>
      </g>
     </g>
     <g id="text_9">
      <!-- 0 -->
      <g style="fill:#262626;" transform="translate(32.115391 323.778906)scale(0.1 -0.1)">
       <use xlink:href="#ArialMT-48"/>
      </g>
     </g>
    </g>
    <g id="ytick_2">
     <g id="line2d_9">
      <g>
       <use style="fill:#262626;stroke:#262626;stroke-width:0.8;" x="44.676328" xlink:href="#m2ab19db7bb" y="263.213328"/>
      </g>
     </g>
     <g id="text_10">
      <!-- 2 -->
      <defs>
       <path d="M 50.34375 8.453125 
L 50.34375 0 
L 3.03125 0 
Q 2.9375 3.171875 4.046875 6.109375 
Q 5.859375 10.9375 9.828125 15.625 
Q 13.8125 20.3125 21.34375 26.46875 
Q 33.015625 36.03125 37.109375 41.625 
Q 41.21875 47.21875 41.21875 52.203125 
Q 41.21875 57.421875 37.46875 61 
Q 33.734375 64.59375 27.734375 64.59375 
Q 21.390625 64.59375 17.578125 60.78125 
Q 13.765625 56.984375 13.71875 50.25 
L 4.6875 51.171875 
Q 5.609375 61.28125 11.65625 66.578125 
Q 17.71875 71.875 27.9375 71.875 
Q 38.234375 71.875 44.234375 66.15625 
Q 50.25 60.453125 50.25 52 
Q 50.25 47.703125 48.484375 43.546875 
Q 46.734375 39.40625 42.65625 34.8125 
Q 38.578125 30.21875 29.109375 22.21875 
Q 21.1875 15.578125 18.9375 13.203125 
Q 16.703125 10.84375 15.234375 8.453125 
z
" id="ArialMT-50"/>
      </defs>
      <g style="fill:#262626;" transform="translate(32.115391 266.792235)scale(0.1 -0.1)">
       <use xlink:href="#ArialMT-50"/>
      </g>
     </g>
    </g>
    <g id="ytick_3">
     <g id="line2d_10">
      <g>
       <use style="fill:#262626;stroke:#262626;stroke-width:0.8;" x="44.676328" xlink:href="#m2ab19db7bb" y="206.226657"/>
      </g>
     </g>
     <g id="text_11">
      <!-- 4 -->
      <defs>
       <path d="M 32.328125 0 
L 32.328125 17.140625 
L 1.265625 17.140625 
L 1.265625 25.203125 
L 33.9375 71.578125 
L 41.109375 71.578125 
L 41.109375 25.203125 
L 50.78125 25.203125 
L 50.78125 17.140625 
L 41.109375 17.140625 
L 41.109375 0 
z
M 32.328125 25.203125 
L 32.328125 57.46875 
L 9.90625 25.203125 
z
" id="ArialMT-52"/>
      </defs>
      <g style="fill:#262626;" transform="translate(32.115391 209.805563)scale(0.1 -0.1)">
       <use xlink:href="#ArialMT-52"/>
      </g>
     </g>
    </g>
    <g id="ytick_4">
     <g id="line2d_11">
      <g>
       <use style="fill:#262626;stroke:#262626;stroke-width:0.8;" x="44.676328" xlink:href="#m2ab19db7bb" y="149.239985"/>
      </g>
     </g>
     <g id="text_12">
      <!-- 6 -->
      <defs>
       <path d="M 49.75 54.046875 
L 41.015625 53.375 
Q 39.84375 58.546875 37.703125 60.890625 
Q 34.125 64.65625 28.90625 64.65625 
Q 24.703125 64.65625 21.53125 62.3125 
Q 17.390625 59.28125 14.984375 53.46875 
Q 12.59375 47.65625 12.5 36.921875 
Q 15.671875 41.75 20.265625 44.09375 
Q 24.859375 46.4375 29.890625 46.4375 
Q 38.671875 46.4375 44.84375 39.96875 
Q 51.03125 33.5 51.03125 23.25 
Q 51.03125 16.5 48.125 10.71875 
Q 45.21875 4.9375 40.140625 1.859375 
Q 35.0625 -1.21875 28.609375 -1.21875 
Q 17.625 -1.21875 10.6875 6.859375 
Q 3.765625 14.9375 3.765625 33.5 
Q 3.765625 54.25 11.421875 63.671875 
Q 18.109375 71.875 29.4375 71.875 
Q 37.890625 71.875 43.28125 67.140625 
Q 48.6875 62.40625 49.75 54.046875 
z
M 13.875 23.1875 
Q 13.875 18.65625 15.796875 14.5 
Q 17.71875 10.359375 21.1875 8.171875 
Q 24.65625 6 28.46875 6 
Q 34.03125 6 38.03125 10.484375 
Q 42.046875 14.984375 42.046875 22.703125 
Q 42.046875 30.125 38.078125 34.390625 
Q 34.125 38.671875 28.125 38.671875 
Q 22.171875 38.671875 18.015625 34.390625 
Q 13.875 30.125 13.875 23.1875 
z
" id="ArialMT-54"/>
      </defs>
      <g style="fill:#262626;" transform="translate(32.115391 152.818891)scale(0.1 -0.1)">
       <use xlink:href="#ArialMT-54"/>
      </g>
     </g>
    </g>
    <g id="ytick_5">
     <g id="line2d_12">
      <g>
       <use style="fill:#262626;stroke:#262626;stroke-width:0.8;" x="44.676328" xlink:href="#m2ab19db7bb" y="92.253313"/>
      </g>
     </g>
     <g id="text_13">
      <!-- 8 -->
      <defs>
       <path d="M 17.671875 38.8125 
Q 12.203125 40.828125 9.5625 44.53125 
Q 6.9375 48.25 6.9375 53.421875 
Q 6.9375 61.234375 12.546875 66.546875 
Q 18.171875 71.875 27.484375 71.875 
Q 36.859375 71.875 42.578125 66.421875 
Q 48.296875 60.984375 48.296875 53.171875 
Q 48.296875 48.1875 45.671875 44.5 
Q 43.0625 40.828125 37.75 38.8125 
Q 44.34375 36.671875 47.78125 31.875 
Q 51.21875 27.09375 51.21875 20.453125 
Q 51.21875 11.28125 44.71875 5.03125 
Q 38.234375 -1.21875 27.640625 -1.21875 
Q 17.046875 -1.21875 10.546875 5.046875 
Q 4.046875 11.328125 4.046875 20.703125 
Q 4.046875 27.6875 7.59375 32.390625 
Q 11.140625 37.109375 17.671875 38.8125 
z
M 15.921875 53.71875 
Q 15.921875 48.640625 19.1875 45.40625 
Q 22.46875 42.1875 27.6875 42.1875 
Q 32.765625 42.1875 36.015625 45.375 
Q 39.265625 48.578125 39.265625 53.21875 
Q 39.265625 58.0625 35.90625 61.359375 
Q 32.5625 64.65625 27.59375 64.65625 
Q 22.5625 64.65625 19.234375 61.421875 
Q 15.921875 58.203125 15.921875 53.71875 
z
M 13.09375 20.65625 
Q 13.09375 16.890625 14.875 13.375 
Q 16.65625 9.859375 20.171875 7.921875 
Q 23.6875 6 27.734375 6 
Q 34.03125 6 38.125 10.046875 
Q 42.234375 14.109375 42.234375 20.359375 
Q 42.234375 26.703125 38.015625 30.859375 
Q 33.796875 35.015625 27.4375 35.015625 
Q 21.234375 35.015625 17.15625 30.90625 
Q 13.09375 26.8125 13.09375 20.65625 
z
" id="ArialMT-56"/>
      </defs>
      <g style="fill:#262626;" transform="translate(32.115391 95.832219)scale(0.1 -0.1)">
       <use xlink:href="#ArialMT-56"/>
      </g>
     </g>
    </g>
    <g id="ytick_6">
     <g id="line2d_13">
      <g>
       <use style="fill:#262626;stroke:#262626;stroke-width:0.8;" x="44.676328" xlink:href="#m2ab19db7bb" y="35.266641"/>
      </g>
     </g>
     <g id="text_14">
      <!-- 10 -->
      <g style="fill:#262626;" transform="translate(26.554453 38.845548)scale(0.1 -0.1)">
       <use xlink:href="#ArialMT-49"/>
       <use x="55.615234" xlink:href="#ArialMT-48"/>
      </g>
     </g>
    </g>
    <g id="text_15">
     <!-- RFTA (MPa) -->
     <defs>
      <path d="M 7.859375 0 
L 7.859375 71.578125 
L 39.59375 71.578125 
Q 49.171875 71.578125 54.140625 69.640625 
Q 59.125 67.71875 62.109375 62.828125 
Q 65.09375 57.953125 65.09375 52.046875 
Q 65.09375 44.4375 60.15625 39.203125 
Q 55.21875 33.984375 44.921875 32.5625 
Q 48.6875 30.765625 50.640625 29 
Q 54.78125 25.203125 58.5 19.484375 
L 70.953125 0 
L 59.03125 0 
L 49.5625 14.890625 
Q 45.40625 21.34375 42.71875 24.75 
Q 40.046875 28.171875 37.921875 29.53125 
Q 35.796875 30.90625 33.59375 31.453125 
Q 31.984375 31.78125 28.328125 31.78125 
L 17.328125 31.78125 
L 17.328125 0 
z
M 17.328125 39.984375 
L 37.703125 39.984375 
Q 44.1875 39.984375 47.84375 41.328125 
Q 51.515625 42.671875 53.421875 45.625 
Q 55.328125 48.578125 55.328125 52.046875 
Q 55.328125 57.125 51.640625 60.390625 
Q 47.953125 63.671875 39.984375 63.671875 
L 17.328125 63.671875 
z
" id="ArialMT-82"/>
      <path d="M 25.921875 0 
L 25.921875 63.140625 
L 2.34375 63.140625 
L 2.34375 71.578125 
L 59.078125 71.578125 
L 59.078125 63.140625 
L 35.40625 63.140625 
L 35.40625 0 
z
" id="ArialMT-84"/>
      <path id="ArialMT-32"/>
      <path d="M 23.390625 -21.046875 
Q 16.109375 -11.859375 11.078125 0.4375 
Q 6.0625 12.75 6.0625 25.921875 
Q 6.0625 37.546875 9.8125 48.1875 
Q 14.203125 60.546875 23.390625 72.796875 
L 29.6875 72.796875 
Q 23.78125 62.640625 21.875 58.296875 
Q 18.890625 51.5625 17.1875 44.234375 
Q 15.09375 35.109375 15.09375 25.875 
Q 15.09375 2.390625 29.6875 -21.046875 
z
" id="ArialMT-40"/>
      <path d="M 7.421875 0 
L 7.421875 71.578125 
L 21.6875 71.578125 
L 38.625 20.90625 
Q 40.96875 13.8125 42.046875 10.296875 
Q 43.265625 14.203125 45.84375 21.78125 
L 62.984375 71.578125 
L 75.734375 71.578125 
L 75.734375 0 
L 66.609375 0 
L 66.609375 59.90625 
L 45.796875 0 
L 37.25 0 
L 16.546875 60.9375 
L 16.546875 0 
z
" id="ArialMT-77"/>
      <path d="M 7.71875 0 
L 7.71875 71.578125 
L 34.71875 71.578125 
Q 41.84375 71.578125 45.609375 70.90625 
Q 50.875 70.015625 54.4375 67.546875 
Q 58.015625 65.09375 60.1875 60.640625 
Q 62.359375 56.203125 62.359375 50.875 
Q 62.359375 41.75 56.546875 35.421875 
Q 50.734375 29.109375 35.546875 29.109375 
L 17.1875 29.109375 
L 17.1875 0 
z
M 17.1875 37.546875 
L 35.6875 37.546875 
Q 44.875 37.546875 48.734375 40.96875 
Q 52.59375 44.390625 52.59375 50.59375 
Q 52.59375 55.078125 50.3125 58.265625 
Q 48.046875 61.46875 44.34375 62.5 
Q 41.9375 63.140625 35.5 63.140625 
L 17.1875 63.140625 
z
" id="ArialMT-80"/>
      <path d="M 12.359375 -21.046875 
L 6.0625 -21.046875 
Q 20.65625 2.390625 20.65625 25.875 
Q 20.65625 35.0625 18.5625 44.09375 
Q 16.890625 51.421875 13.921875 58.15625 
Q 12.015625 62.546875 6.0625 72.796875 
L 12.359375 72.796875 
Q 21.53125 60.546875 25.921875 48.1875 
Q 29.6875 37.546875 29.6875 25.921875 
Q 29.6875 12.75 24.625 0.4375 
Q 19.578125 -11.859375 12.359375 -21.046875 
z
" id="ArialMT-41"/>
     </defs>
     <g style="fill:#262626;" transform="translate(20.449766 193.54375)rotate(-90)scale(0.1 -0.1)">
      <use xlink:href="#ArialMT-82"/>
      <use x="72.216797" xlink:href="#ArialMT-70"/>
      <use x="133.300781" xlink:href="#ArialMT-84"/>
      <use x="194.275391" xlink:href="#ArialMT-65"/>
      <use x="260.896484" xlink:href="#ArialMT-32"/>
      <use x="288.679688" xlink:href="#ArialMT-40"/>
      <use x="321.980469" xlink:href="#ArialMT-77"/>
      <use x="405.28125" xlink:href="#ArialMT-80"/>
      <use x="471.980469" xlink:href="#ArialMT-97"/>
      <use x="527.595703" xlink:href="#ArialMT-41"/>
     </g>
    </g>
   </g>
   <g id="patch_3">
    <path clip-path="url(#p4c69804cf3)" d="M 54.214202 320.2 
L 79.648532 320.2 
L 79.648532 120.746649 
L 54.214202 120.746649 
z
" style="fill:#d9d9d9;opacity:0.7;stroke:#ffffff;stroke-linejoin:miter;"/>
   </g>
   <g id="patch_4">
    <path clip-path="url(#p4c69804cf3)" d="M 149.592941 320.2 
L 175.027271 320.2 
L 175.027271 133.56865 
L 149.592941 133.56865 
z
" style="fill:#d9d9d9;opacity:0.7;stroke:#ffffff;stroke-linejoin:miter;"/>
   </g>
   <g id="patch_5">
    <path clip-path="url(#p4c69804cf3)" d="M 244.97168 320.2 
L 270.40601 320.2 
L 270.40601 132.143983 
L 244.97168 132.143983 
z
" style="fill:#d9d9d9;opacity:0.7;stroke:#ffffff;stroke-linejoin:miter;"/>
   </g>
   <g id="patch_6">
    <path clip-path="url(#p4c69804cf3)" d="M 340.350419 320.2 
L 365.784749 320.2 
L 365.784749 143.541318 
L 340.350419 143.541318 
z
" style="fill:#d9d9d9;opacity:0.7;stroke:#ffffff;stroke-linejoin:miter;"/>
   </g>
   <g id="patch_7">
    <path clip-path="url(#p4c69804cf3)" d="M 435.729157 320.2 
L 461.163488 320.2 
L 461.163488 139.979651 
L 435.729157 139.979651 
z
" style="fill:#d9d9d9;opacity:0.7;stroke:#ffffff;stroke-linejoin:miter;"/>
   </g>
   <g id="patch_8">
    <path clip-path="url(#p4c69804cf3)" d="M 531.107896 320.2 
L 556.542227 320.2 
L 556.542227 147.340429 
L 531.107896 147.340429 
z
" style="fill:#d9d9d9;opacity:0.7;stroke:#ffffff;stroke-linejoin:miter;"/>
   </g>
   <g id="patch_9">
    <path clip-path="url(#p4c69804cf3)" d="M 626.486635 320.2 
L 651.920965 320.2 
L 651.920965 128.344872 
L 626.486635 128.344872 
z
" style="fill:#d9d9d9;opacity:0.7;stroke:#ffffff;stroke-linejoin:miter;"/>
   </g>
   <g id="patch_10">
    <path clip-path="url(#p4c69804cf3)" d="M 79.648532 320.2 
L 105.082863 320.2 
L 105.082863 71.595645 
L 79.648532 71.595645 
z
" style="fill:#959595;opacity:0.7;stroke:#ffffff;stroke-linejoin:miter;"/>
   </g>
   <g id="patch_11">
    <path clip-path="url(#p4c69804cf3)" d="M 175.027271 320.2 
L 200.461602 320.2 
L 200.461602 80.855979 
L 175.027271 80.855979 
z
" style="fill:#959595;opacity:0.7;stroke:#ffffff;stroke-linejoin:miter;"/>
   </g>
   <g id="patch_12">
    <path clip-path="url(#p4c69804cf3)" d="M 270.40601 320.2 
L 295.84034 320.2 
L 295.84034 70.170978 
L 270.40601 70.170978 
z
" style="fill:#959595;opacity:0.7;stroke:#ffffff;stroke-linejoin:miter;"/>
   </g>
   <g id="patch_13">
    <path clip-path="url(#p4c69804cf3)" d="M 365.784749 320.2 
L 391.219079 320.2 
L 391.219079 97.95198 
L 365.784749 97.95198 
z
" style="fill:#959595;opacity:0.7;stroke:#ffffff;stroke-linejoin:miter;"/>
   </g>
   <g id="patch_14">
    <path clip-path="url(#p4c69804cf3)" d="M 461.163488 320.2 
L 486.597818 320.2 
L 486.597818 82.992979 
L 461.163488 82.992979 
z
" style="fill:#959595;opacity:0.7;stroke:#ffffff;stroke-linejoin:miter;"/>
   </g>
   <g id="patch_15">
    <path clip-path="url(#p4c69804cf3)" d="M 556.542227 320.2 
L 581.976557 320.2 
L 581.976557 131.194205 
L 556.542227 131.194205 
z
" style="fill:#959595;opacity:0.7;stroke:#ffffff;stroke-linejoin:miter;"/>
   </g>
   <g id="patch_16">
    <path clip-path="url(#p4c69804cf3)" d="M 651.920965 320.2 
L 677.355296 320.2 
L 677.355296 97.002202 
L 651.920965 97.002202 
z
" style="fill:#959595;opacity:0.7;stroke:#ffffff;stroke-linejoin:miter;"/>
   </g>
   <g id="patch_17">
    <path clip-path="url(#p4c69804cf3)" d="M 105.082863 320.2 
L 130.517193 320.2 
L 130.517193 40.252975 
L 105.082863 40.252975 
z
" style="fill:#515151;opacity:0.7;stroke:#ffffff;stroke-linejoin:miter;"/>
   </g>
   <g id="patch_18">
    <path clip-path="url(#p4c69804cf3)" d="M 200.461602 320.2 
L 225.895932 320.2 
L 225.895932 70.170978 
L 200.461602 70.170978 
z
" style="fill:#515151;opacity:0.7;stroke:#ffffff;stroke-linejoin:miter;"/>
   </g>
   <g id="patch_19">
    <path clip-path="url(#p4c69804cf3)" d="M 295.84034 320.2 
L 321.274671 320.2 
L 321.274671 65.896977 
L 295.84034 65.896977 
z
" style="fill:#515151;opacity:0.7;stroke:#ffffff;stroke-linejoin:miter;"/>
   </g>
   <g id="patch_20">
    <path clip-path="url(#p4c69804cf3)" d="M 391.219079 320.2 
L 416.65341 320.2 
L 416.65341 71.595645 
L 391.219079 71.595645 
z
" style="fill:#515151;opacity:0.7;stroke:#ffffff;stroke-linejoin:miter;"/>
   </g>
   <g id="patch_21">
    <path clip-path="url(#p4c69804cf3)" d="M 486.597818 320.2 
L 512.032148 320.2 
L 512.032148 60.910644 
L 486.597818 60.910644 
z
" style="fill:#515151;opacity:0.7;stroke:#ffffff;stroke-linejoin:miter;"/>
   </g>
   <g id="patch_22">
    <path clip-path="url(#p4c69804cf3)" d="M 581.976557 320.2 
L 607.410887 320.2 
L 607.410887 90.353757 
L 581.976557 90.353757 
z
" style="fill:#515151;opacity:0.7;stroke:#ffffff;stroke-linejoin:miter;"/>
   </g>
   <g id="patch_23">
    <path clip-path="url(#p4c69804cf3)" d="M 677.355296 320.2 
L 702.789626 320.2 
L 702.789626 68.508867 
L 677.355296 68.508867 
z
" style="fill:#515151;opacity:0.7;stroke:#ffffff;stroke-linejoin:miter;"/>
   </g>
   <g id="line2d_14">
    <path clip-path="url(#p4c69804cf3)" d="M 66.931367 124.236356 
L 66.931367 117.256942 
" style="fill:none;stroke:#424242;stroke-linecap:round;stroke-width:0.8;"/>
   </g>
   <g id="line2d_15">
    <path clip-path="url(#p4c69804cf3)" d="M 62.16243 124.236356 
L 71.700304 124.236356 
" style="fill:none;stroke:#424242;stroke-linecap:round;stroke-width:0.8;"/>
   </g>
   <g id="line2d_16">
    <path clip-path="url(#p4c69804cf3)" d="M 62.16243 117.256942 
L 71.700304 117.256942 
" style="fill:none;stroke:#424242;stroke-linecap:round;stroke-width:0.8;"/>
   </g>
   <g id="line2d_17">
    <path clip-path="url(#p4c69804cf3)" d="M 162.310106 137.842651 
L 162.310106 129.29465 
" style="fill:none;stroke:#424242;stroke-linecap:round;stroke-width:0.8;"/>
   </g>
   <g id="line2d_18">
    <path clip-path="url(#p4c69804cf3)" d="M 157.541169 137.842651 
L 167.079043 137.842651 
" style="fill:none;stroke:#424242;stroke-linecap:round;stroke-width:0.8;"/>
   </g>
   <g id="line2d_19">
    <path clip-path="url(#p4c69804cf3)" d="M 157.541169 129.29465 
L 167.079043 129.29465 
" style="fill:none;stroke:#424242;stroke-linecap:round;stroke-width:0.8;"/>
   </g>
   <g id="line2d_20">
    <path clip-path="url(#p4c69804cf3)" d="M 257.688845 138.515287 
L 257.688845 125.77268 
" style="fill:none;stroke:#424242;stroke-linecap:round;stroke-width:0.8;"/>
   </g>
   <g id="line2d_21">
    <path clip-path="url(#p4c69804cf3)" d="M 252.919908 138.515287 
L 262.457782 138.515287 
" style="fill:none;stroke:#424242;stroke-linecap:round;stroke-width:0.8;"/>
   </g>
   <g id="line2d_22">
    <path clip-path="url(#p4c69804cf3)" d="M 252.919908 125.77268 
L 262.457782 125.77268 
" style="fill:none;stroke:#424242;stroke-linecap:round;stroke-width:0.8;"/>
   </g>
   <g id="line2d_23">
    <path clip-path="url(#p4c69804cf3)" d="M 353.067584 154.010438 
L 353.067584 133.072198 
" style="fill:none;stroke:#424242;stroke-linecap:round;stroke-width:0.8;"/>
   </g>
   <g id="line2d_24">
    <path clip-path="url(#p4c69804cf3)" d="M 348.298647 154.010438 
L 357.836521 154.010438 
" style="fill:none;stroke:#424242;stroke-linecap:round;stroke-width:0.8;"/>
   </g>
   <g id="line2d_25">
    <path clip-path="url(#p4c69804cf3)" d="M 348.298647 133.072198 
L 357.836521 133.072198 
" style="fill:none;stroke:#424242;stroke-linecap:round;stroke-width:0.8;"/>
   </g>
   <g id="line2d_26">
    <path clip-path="url(#p4c69804cf3)" d="M 448.446323 151.083829 
L 448.446323 128.875472 
" style="fill:none;stroke:#424242;stroke-linecap:round;stroke-width:0.8;"/>
   </g>
   <g id="line2d_27">
    <path clip-path="url(#p4c69804cf3)" d="M 443.677386 151.083829 
L 453.215259 151.083829 
" style="fill:none;stroke:#424242;stroke-linecap:round;stroke-width:0.8;"/>
   </g>
   <g id="line2d_28">
    <path clip-path="url(#p4c69804cf3)" d="M 443.677386 128.875472 
L 453.215259 128.875472 
" style="fill:none;stroke:#424242;stroke-linecap:round;stroke-width:0.8;"/>
   </g>
   <g id="line2d_29">
    <path clip-path="url(#p4c69804cf3)" d="M 543.825061 156.74275 
L 543.825061 137.938108 
" style="fill:none;stroke:#424242;stroke-linecap:round;stroke-width:0.8;"/>
   </g>
   <g id="line2d_30">
    <path clip-path="url(#p4c69804cf3)" d="M 539.056124 156.74275 
L 548.593998 156.74275 
" style="fill:none;stroke:#424242;stroke-linecap:round;stroke-width:0.8;"/>
   </g>
   <g id="line2d_31">
    <path clip-path="url(#p4c69804cf3)" d="M 539.056124 137.938108 
L 548.593998 137.938108 
" style="fill:none;stroke:#424242;stroke-linecap:round;stroke-width:0.8;"/>
   </g>
   <g id="line2d_32">
    <path clip-path="url(#p4c69804cf3)" d="M 639.2038 137.152749 
L 639.2038 119.536994 
" style="fill:none;stroke:#424242;stroke-linecap:round;stroke-width:0.8;"/>
   </g>
   <g id="line2d_33">
    <path clip-path="url(#p4c69804cf3)" d="M 634.434863 137.152749 
L 643.972737 137.152749 
" style="fill:none;stroke:#424242;stroke-linecap:round;stroke-width:0.8;"/>
   </g>
   <g id="line2d_34">
    <path clip-path="url(#p4c69804cf3)" d="M 634.434863 119.536994 
L 643.972737 119.536994 
" style="fill:none;stroke:#424242;stroke-linecap:round;stroke-width:0.8;"/>
   </g>
   <g id="line2d_35">
    <path clip-path="url(#p4c69804cf3)" d="M 92.365698 81.126016 
L 92.365698 62.065273 
" style="fill:none;stroke:#424242;stroke-linecap:round;stroke-width:0.8;"/>
   </g>
   <g id="line2d_36">
    <path clip-path="url(#p4c69804cf3)" d="M 87.596761 81.126016 
L 97.134634 81.126016 
" style="fill:none;stroke:#424242;stroke-linecap:round;stroke-width:0.8;"/>
   </g>
   <g id="line2d_37">
    <path clip-path="url(#p4c69804cf3)" d="M 87.596761 62.065273 
L 97.134634 62.065273 
" style="fill:none;stroke:#424242;stroke-linecap:round;stroke-width:0.8;"/>
   </g>
   <g id="line2d_38">
    <path clip-path="url(#p4c69804cf3)" d="M 187.744436 90.306149 
L 187.744436 71.405808 
" style="fill:none;stroke:#424242;stroke-linecap:round;stroke-width:0.8;"/>
   </g>
   <g id="line2d_39">
    <path clip-path="url(#p4c69804cf3)" d="M 182.975499 90.306149 
L 192.513373 90.306149 
" style="fill:none;stroke:#424242;stroke-linecap:round;stroke-width:0.8;"/>
   </g>
   <g id="line2d_40">
    <path clip-path="url(#p4c69804cf3)" d="M 182.975499 71.405808 
L 192.513373 71.405808 
" style="fill:none;stroke:#424242;stroke-linecap:round;stroke-width:0.8;"/>
   </g>
   <g id="line2d_41">
    <path clip-path="url(#p4c69804cf3)" d="M 283.123175 79.039457 
L 283.123175 61.302499 
" style="fill:none;stroke:#424242;stroke-linecap:round;stroke-width:0.8;"/>
   </g>
   <g id="line2d_42">
    <path clip-path="url(#p4c69804cf3)" d="M 278.354238 79.039457 
L 287.892112 79.039457 
" style="fill:none;stroke:#424242;stroke-linecap:round;stroke-width:0.8;"/>
   </g>
   <g id="line2d_43">
    <path clip-path="url(#p4c69804cf3)" d="M 278.354238 61.302499 
L 287.892112 61.302499 
" style="fill:none;stroke:#424242;stroke-linecap:round;stroke-width:0.8;"/>
   </g>
   <g id="line2d_44">
    <path clip-path="url(#p4c69804cf3)" d="M 378.501914 115.972748 
L 378.501914 79.931212 
" style="fill:none;stroke:#424242;stroke-linecap:round;stroke-width:0.8;"/>
   </g>
   <g id="line2d_45">
    <path clip-path="url(#p4c69804cf3)" d="M 373.732977 115.972748 
L 383.270851 115.972748 
" style="fill:none;stroke:#424242;stroke-linecap:round;stroke-width:0.8;"/>
   </g>
   <g id="line2d_46">
    <path clip-path="url(#p4c69804cf3)" d="M 373.732977 79.931212 
L 383.270851 79.931212 
" style="fill:none;stroke:#424242;stroke-linecap:round;stroke-width:0.8;"/>
   </g>
   <g id="line2d_47">
    <path clip-path="url(#p4c69804cf3)" d="M 473.880653 97.43421 
L 473.880653 68.551748 
" style="fill:none;stroke:#424242;stroke-linecap:round;stroke-width:0.8;"/>
   </g>
   <g id="line2d_48">
    <path clip-path="url(#p4c69804cf3)" d="M 469.111716 97.43421 
L 478.64959 97.43421 
" style="fill:none;stroke:#424242;stroke-linecap:round;stroke-width:0.8;"/>
   </g>
   <g id="line2d_49">
    <path clip-path="url(#p4c69804cf3)" d="M 469.111716 68.551748 
L 478.64959 68.551748 
" style="fill:none;stroke:#424242;stroke-linecap:round;stroke-width:0.8;"/>
   </g>
   <g id="line2d_50">
    <path clip-path="url(#p4c69804cf3)" d="M 569.259392 182.815309 
L 569.259392 79.573102 
" style="fill:none;stroke:#424242;stroke-linecap:round;stroke-width:0.8;"/>
   </g>
   <g id="line2d_51">
    <path clip-path="url(#p4c69804cf3)" d="M 564.490455 182.815309 
L 574.028329 182.815309 
" style="fill:none;stroke:#424242;stroke-linecap:round;stroke-width:0.8;"/>
   </g>
   <g id="line2d_52">
    <path clip-path="url(#p4c69804cf3)" d="M 564.490455 79.573102 
L 574.028329 79.573102 
" style="fill:none;stroke:#424242;stroke-linecap:round;stroke-width:0.8;"/>
   </g>
   <g id="line2d_53">
    <path clip-path="url(#p4c69804cf3)" d="M 664.638131 104.480761 
L 664.638131 89.523644 
" style="fill:none;stroke:#424242;stroke-linecap:round;stroke-width:0.8;"/>
   </g>
   <g id="line2d_54">
    <path clip-path="url(#p4c69804cf3)" d="M 659.869194 104.480761 
L 669.407068 104.480761 
" style="fill:none;stroke:#424242;stroke-linecap:round;stroke-width:0.8;"/>
   </g>
   <g id="line2d_55">
    <path clip-path="url(#p4c69804cf3)" d="M 659.869194 89.523644 
L 669.407068 89.523644 
" style="fill:none;stroke:#424242;stroke-linecap:round;stroke-width:0.8;"/>
   </g>
   <g id="line2d_56">
    <path clip-path="url(#p4c69804cf3)" d="M 117.800028 54.972617 
L 117.800028 25.533333 
" style="fill:none;stroke:#424242;stroke-linecap:round;stroke-width:0.8;"/>
   </g>
   <g id="line2d_57">
    <path clip-path="url(#p4c69804cf3)" d="M 113.031091 54.972617 
L 122.568965 54.972617 
" style="fill:none;stroke:#424242;stroke-linecap:round;stroke-width:0.8;"/>
   </g>
   <g id="line2d_58">
    <path clip-path="url(#p4c69804cf3)" d="M 113.031091 25.533333 
L 122.568965 25.533333 
" style="fill:none;stroke:#424242;stroke-linecap:round;stroke-width:0.8;"/>
   </g>
   <g id="line2d_59">
    <path clip-path="url(#p4c69804cf3)" d="M 213.178767 84.328324 
L 213.178767 56.013632 
" style="fill:none;stroke:#424242;stroke-linecap:round;stroke-width:0.8;"/>
   </g>
   <g id="line2d_60">
    <path clip-path="url(#p4c69804cf3)" d="M 208.40983 84.328324 
L 217.947704 84.328324 
" style="fill:none;stroke:#424242;stroke-linecap:round;stroke-width:0.8;"/>
   </g>
   <g id="line2d_61">
    <path clip-path="url(#p4c69804cf3)" d="M 208.40983 56.013632 
L 217.947704 56.013632 
" style="fill:none;stroke:#424242;stroke-linecap:round;stroke-width:0.8;"/>
   </g>
   <g id="line2d_62">
    <path clip-path="url(#p4c69804cf3)" d="M 308.557506 84.183285 
L 308.557506 47.61067 
" style="fill:none;stroke:#424242;stroke-linecap:round;stroke-width:0.8;"/>
   </g>
   <g id="line2d_63">
    <path clip-path="url(#p4c69804cf3)" d="M 303.788569 84.183285 
L 313.326443 84.183285 
" style="fill:none;stroke:#424242;stroke-linecap:round;stroke-width:0.8;"/>
   </g>
   <g id="line2d_64">
    <path clip-path="url(#p4c69804cf3)" d="M 303.788569 47.61067 
L 313.326443 47.61067 
" style="fill:none;stroke:#424242;stroke-linecap:round;stroke-width:0.8;"/>
   </g>
   <g id="line2d_65">
    <path clip-path="url(#p4c69804cf3)" d="M 403.936244 80.464124 
L 403.936244 62.727165 
" style="fill:none;stroke:#424242;stroke-linecap:round;stroke-width:0.8;"/>
   </g>
   <g id="line2d_66">
    <path clip-path="url(#p4c69804cf3)" d="M 399.167307 80.464124 
L 408.705181 80.464124 
" style="fill:none;stroke:#424242;stroke-linecap:round;stroke-width:0.8;"/>
   </g>
   <g id="line2d_67">
    <path clip-path="url(#p4c69804cf3)" d="M 399.167307 62.727165 
L 408.705181 62.727165 
" style="fill:none;stroke:#424242;stroke-linecap:round;stroke-width:0.8;"/>
   </g>
   <g id="line2d_68">
    <path clip-path="url(#p4c69804cf3)" d="M 499.314983 76.121923 
L 499.314983 45.699365 
" style="fill:none;stroke:#424242;stroke-linecap:round;stroke-width:0.8;"/>
   </g>
   <g id="line2d_69">
    <path clip-path="url(#p4c69804cf3)" d="M 494.546046 76.121923 
L 504.08392 76.121923 
" style="fill:none;stroke:#424242;stroke-linecap:round;stroke-width:0.8;"/>
   </g>
   <g id="line2d_70">
    <path clip-path="url(#p4c69804cf3)" d="M 494.546046 45.699365 
L 504.08392 45.699365 
" style="fill:none;stroke:#424242;stroke-linecap:round;stroke-width:0.8;"/>
   </g>
   <g id="line2d_71">
    <path clip-path="url(#p4c69804cf3)" d="M 594.693722 109.864701 
L 594.693722 70.842814 
" style="fill:none;stroke:#424242;stroke-linecap:round;stroke-width:0.8;"/>
   </g>
   <g id="line2d_72">
    <path clip-path="url(#p4c69804cf3)" d="M 589.924785 109.864701 
L 599.462659 109.864701 
" style="fill:none;stroke:#424242;stroke-linecap:round;stroke-width:0.8;"/>
   </g>
   <g id="line2d_73">
    <path clip-path="url(#p4c69804cf3)" d="M 589.924785 70.842814 
L 599.462659 70.842814 
" style="fill:none;stroke:#424242;stroke-linecap:round;stroke-width:0.8;"/>
   </g>
   <g id="line2d_74">
    <path clip-path="url(#p4c69804cf3)" d="M 690.072461 75.987425 
L 690.072461 61.030308 
" style="fill:none;stroke:#424242;stroke-linecap:round;stroke-width:0.8;"/>
   </g>
   <g id="line2d_75">
    <path clip-path="url(#p4c69804cf3)" d="M 685.303524 75.987425 
L 694.841398 75.987425 
" style="fill:none;stroke:#424242;stroke-linecap:round;stroke-width:0.8;"/>
   </g>
   <g id="line2d_76">
    <path clip-path="url(#p4c69804cf3)" d="M 685.303524 61.030308 
L 694.841398 61.030308 
" style="fill:none;stroke:#424242;stroke-linecap:round;stroke-width:0.8;"/>
   </g>
   <g id="patch_24">
    <path d="M 44.676328 320.2 
L 44.676328 10.8 
" style="fill:none;stroke:#262626;stroke-linecap:square;stroke-linejoin:miter;stroke-width:0.8;"/>
   </g>
   <g id="patch_25">
    <path d="M 44.676328 320.2 
L 712.3275 320.2 
" style="fill:none;stroke:#262626;stroke-linecap:square;stroke-linejoin:miter;stroke-width:0.8;"/>
   </g>
  </g>
  <g id="legend_1">
   <g id="text_16">
    <!-- Dias -->
    <defs>
     <path d="M 7.71875 0 
L 7.71875 71.578125 
L 32.375 71.578125 
Q 40.71875 71.578125 45.125 70.5625 
Q 51.265625 69.140625 55.609375 65.4375 
Q 61.28125 60.640625 64.078125 53.1875 
Q 66.890625 45.75 66.890625 36.1875 
Q 66.890625 28.03125 64.984375 21.734375 
Q 63.09375 15.4375 60.109375 11.296875 
Q 57.125 7.171875 53.578125 4.796875 
Q 50.046875 2.4375 45.046875 1.21875 
Q 40.046875 0 33.546875 0 
z
M 17.1875 8.453125 
L 32.46875 8.453125 
Q 39.546875 8.453125 43.578125 9.765625 
Q 47.609375 11.078125 50 13.484375 
Q 53.375 16.84375 55.25 22.53125 
Q 57.125 28.21875 57.125 36.328125 
Q 57.125 47.5625 53.4375 53.59375 
Q 49.75 59.625 44.484375 61.671875 
Q 40.671875 63.140625 32.234375 63.140625 
L 17.1875 63.140625 
z
" id="ArialMT-68"/>
     <path d="M 6.640625 61.46875 
L 6.640625 71.578125 
L 15.4375 71.578125 
L 15.4375 61.46875 
z
M 6.640625 0 
L 6.640625 51.859375 
L 15.4375 51.859375 
L 15.4375 0 
z
" id="ArialMT-105"/>
     <path d="M 3.078125 15.484375 
L 11.765625 16.84375 
Q 12.5 11.625 15.84375 8.84375 
Q 19.1875 6.0625 25.203125 6.0625 
Q 31.25 6.0625 34.171875 8.515625 
Q 37.109375 10.984375 37.109375 14.3125 
Q 37.109375 17.28125 34.515625 19 
Q 32.71875 20.171875 25.53125 21.96875 
Q 15.875 24.421875 12.140625 26.203125 
Q 8.40625 27.984375 6.46875 31.125 
Q 4.546875 34.28125 4.546875 38.09375 
Q 4.546875 41.546875 6.125 44.5 
Q 7.71875 47.46875 10.453125 49.421875 
Q 12.5 50.921875 16.03125 51.96875 
Q 19.578125 53.03125 23.640625 53.03125 
Q 29.734375 53.03125 34.34375 51.265625 
Q 38.96875 49.515625 41.15625 46.5 
Q 43.359375 43.5 44.1875 38.484375 
L 35.59375 37.3125 
Q 35.015625 41.3125 32.203125 43.546875 
Q 29.390625 45.796875 24.265625 45.796875 
Q 18.21875 45.796875 15.625 43.796875 
Q 13.03125 41.796875 13.03125 39.109375 
Q 13.03125 37.40625 14.109375 36.03125 
Q 15.1875 34.625 17.484375 33.6875 
Q 18.796875 33.203125 25.25 31.453125 
Q 34.578125 28.953125 38.25 27.359375 
Q 41.9375 25.78125 44.03125 22.75 
Q 46.140625 19.734375 46.140625 15.234375 
Q 46.140625 10.84375 43.578125 6.953125 
Q 41.015625 3.078125 36.171875 0.953125 
Q 31.34375 -1.171875 25.25 -1.171875 
Q 15.140625 -1.171875 9.84375 3.03125 
Q 4.546875 7.234375 3.078125 15.484375 
z
" id="ArialMT-115"/>
    </defs>
    <g style="fill:#262626;" transform="translate(728.686719 161.367188)scale(0.1 -0.1)">
     <use xlink:href="#ArialMT-68"/>
     <use x="72.216797" xlink:href="#ArialMT-105"/>
     <use x="94.433594" xlink:href="#ArialMT-97"/>
     <use x="150.048828" xlink:href="#ArialMT-115"/>
    </g>
   </g>
   <g id="patch_26">
    <path d="M 719.128125 175.5125 
L 739.128125 175.5125 
L 739.128125 168.5125 
L 719.128125 168.5125 
z
" style="fill:#d9d9d9;opacity:0.7;stroke:#ffffff;stroke-linejoin:miter;"/>
   </g>
   <g id="text_17">
    <!-- 7 -->
    <defs>
     <path d="M 4.734375 62.203125 
L 4.734375 70.65625 
L 51.078125 70.65625 
L 51.078125 63.8125 
Q 44.234375 56.546875 37.515625 44.484375 
Q 30.8125 32.421875 27.15625 19.671875 
Q 24.515625 10.6875 23.78125 0 
L 14.75 0 
Q 14.890625 8.453125 18.0625 20.40625 
Q 21.234375 32.375 27.171875 43.484375 
Q 33.109375 54.59375 39.796875 62.203125 
z
" id="ArialMT-55"/>
    </defs>
    <g style="fill:#262626;" transform="translate(747.128125 175.5125)scale(0.1 -0.1)">
     <use xlink:href="#ArialMT-55"/>
    </g>
   </g>
   <g id="patch_27">
    <path d="M 719.128125 189.657812 
L 739.128125 189.657812 
L 739.128125 182.657812 
L 719.128125 182.657812 
z
" style="fill:#959595;opacity:0.7;stroke:#ffffff;stroke-linejoin:miter;"/>
   </g>
   <g id="text_18">
    <!-- 28 -->
    <g style="fill:#262626;" transform="translate(747.128125 189.657812)scale(0.1 -0.1)">
     <use xlink:href="#ArialMT-50"/>
     <use x="55.615234" xlink:href="#ArialMT-56"/>
    </g>
   </g>
   <g id="patch_28">
    <path d="M 719.128125 203.803125 
L 739.128125 203.803125 
L 739.128125 196.803125 
L 719.128125 196.803125 
z
" style="fill:#515151;opacity:0.7;stroke:#ffffff;stroke-linejoin:miter;"/>
   </g>
   <g id="text_19">
    <!-- 91 -->
    <defs>
     <path d="M 5.46875 16.546875 
L 13.921875 17.328125 
Q 14.984375 11.375 18.015625 8.6875 
Q 21.046875 6 25.78125 6 
Q 29.828125 6 32.875 7.859375 
Q 35.9375 9.71875 37.890625 12.8125 
Q 39.84375 15.921875 41.15625 21.1875 
Q 42.484375 26.46875 42.484375 31.9375 
Q 42.484375 32.515625 42.4375 33.6875 
Q 39.796875 29.5 35.234375 26.875 
Q 30.671875 24.265625 25.34375 24.265625 
Q 16.453125 24.265625 10.296875 30.703125 
Q 4.15625 37.15625 4.15625 47.703125 
Q 4.15625 58.59375 10.578125 65.234375 
Q 17 71.875 26.65625 71.875 
Q 33.640625 71.875 39.421875 68.109375 
Q 45.21875 64.359375 48.21875 57.390625 
Q 51.21875 50.4375 51.21875 37.25 
Q 51.21875 23.53125 48.234375 15.40625 
Q 45.265625 7.28125 39.375 3.03125 
Q 33.5 -1.21875 25.59375 -1.21875 
Q 17.1875 -1.21875 11.859375 3.4375 
Q 6.546875 8.109375 5.46875 16.546875 
z
M 41.453125 48.140625 
Q 41.453125 55.71875 37.421875 60.15625 
Q 33.40625 64.59375 27.734375 64.59375 
Q 21.875 64.59375 17.53125 59.8125 
Q 13.1875 55.03125 13.1875 47.40625 
Q 13.1875 40.578125 17.3125 36.296875 
Q 21.4375 32.03125 27.484375 32.03125 
Q 33.59375 32.03125 37.515625 36.296875 
Q 41.453125 40.578125 41.453125 48.140625 
z
" id="ArialMT-57"/>
    </defs>
    <g style="fill:#262626;" transform="translate(747.128125 203.803125)scale(0.1 -0.1)">
     <use xlink:href="#ArialMT-57"/>
     <use x="55.615234" xlink:href="#ArialMT-49"/>
    </g>
   </g>
  </g>
 </g>
 <defs>
  <clipPath id="p4c69804cf3">
   <rect height="309.4" width="667.651172" x="44.676328" y="10.8"/>
  </clipPath>
 </defs>
</svg>
